# xmcd
#
# Track frame offsets:
#	150
#	12038
#	26081
#	37902
#	57556
#	75233
#	90689
#	108838
#	124662
#	140739
#
# Disc length: 2069 seconds
#
# Revision: 5
# Processed by: cddbd v1.5.2PL0 Copyright (c) Steve Scherf et al.
# Submitted via: EasyCDDAExtractor 12.0.1.1
#
DISCID=7508130a
DTITLE=Alan Jackson - Everything I Love
DYEAR=1996
DGENRE=Country
TTITLE0=Little Bitty
TTITLE1=Everything I Love
TTITLE2=Buicks To the Moon
TTITLE3=Between The Devil And Me
TTITLE4=There Goes
TTITLE5=A House With No Curtains
TTITLE6=Who's Cheatin' Who
TTITLE7=Walk On The Rock
TTITLE8=Must've Had A Ball
TTITLE9=It's Time You Learned About Good-Bye
EXTD=YEAR: 1996
EXTT0=
EXTT1=
EXTT2=
EXTT3=
EXTT4=
EXTT5=
EXTT6=
EXTT7=
EXTT8=
EXTT9=
PLAYORDER=
